<svg viewBox="0 0 100 100" xmlns="http://www.w3.org/2000/svg"><defs><filter id="g" x="-80%" y="-80%" width="260%" height="260%"><feGaussianBlur stdDeviation="1.15" result="b"/><feMerge><feMergeNode in="b"/><feMergeNode in="b"/><feMergeNode in="SourceGraphic"/></feMerge></filter></defs><rect x="4" y="4" width="92" height="92" rx="22" fill="#23A455"/><g fill="none" stroke="#ffffff" stroke-width="3.4" stroke-linejoin="round"><path d="M 50 35.5 L 50 20 A 30 30 0 0 1 75.98 35 L 62.56 42.75 Z"/><path d="M 62.56 42.75 L 75.98 35 A 30 30 0 0 1 75.98 65 L 62.56 57.25 Z"/><path d="M 62.56 57.25 L 75.98 65 A 30 30 0 0 1 50 80 L 50 64.5 Z"/><path d="M 50 64.5 L 50 80 A 30 30 0 0 1 24.02 65 L 37.44 57.25 Z"/><path d="M 37.44 57.25 L 24.02 65 A 30 30 0 0 1 24.02 35 L 37.44 42.75 Z"/><path d="M 37.44 42.75 L 24.02 35 A 30 30 0 0 1 50 20 L 50 35.5 Z"/></g><g filter="url(#g)"><path d="M 50 35.5 L 62.56 42.75 L 62.56 57.25 L 50 64.5 L 37.44 57.25 L 37.44 42.75 Z" fill="none" stroke="#6BFFE0" stroke-width="3.4" stroke-linejoin="round"/><g fill="#6BFFE0"><circle cx="50" cy="35.5" r="2.3"/><circle cx="62.56" cy="42.75" r="2.3"/><circle cx="62.56" cy="57.25" r="2.3"/><circle cx="50" cy="64.5" r="2.3"/><circle cx="37.44" cy="57.25" r="2.3"/><circle cx="37.44" cy="42.75" r="2.3"/></g></g></svg>
