<svg viewBox="0 0 100 100" xmlns="http://www.w3.org/2000/svg" role="img" aria-label="Onshelf">
  <rect x="4" y="4" width="92" height="92" rx="22" fill="#23A455"/>
  <g fill="none" stroke="#ffffff" stroke-width="3.4" stroke-linejoin="round">
    <path d="M 50 35.5 L 50 20 A 30 30 0 0 1 75.98 35 L 62.56 42.75 Z"/>
    <path d="M 62.56 42.75 L 75.98 35 A 30 30 0 0 1 75.98 65 L 62.56 57.25 Z"/>
    <path d="M 62.56 57.25 L 75.98 65 A 30 30 0 0 1 50 80 L 50 64.5 Z"/>
    <path d="M 50 64.5 L 50 80 A 30 30 0 0 1 24.02 65 L 37.44 57.25 Z"/>
    <path d="M 37.44 57.25 L 24.02 65 A 30 30 0 0 1 24.02 35 L 37.44 42.75 Z"/>
    <path d="M 37.44 42.75 L 24.02 35 A 30 30 0 0 1 50 20 L 50 35.5 Z"/>
    <path d="M 50 35.5 L 62.56 42.75 L 62.56 57.25 L 50 64.5 L 37.44 57.25 L 37.44 42.75 Z"/>
  </g>
</svg>
